<svg width="43" height="43" viewBox="0 0 43 43" fill="none" xmlns="http://www.w3.org/2000/svg">
<g id="gis:position" clip-path="url(#clip0_1_67)">
<path id="Vector" d="M21.5004 0C14.4695 0 8.70752 5.7448 8.70752 12.7564C8.70752 15.4731 9.57526 17.9981 11.0437 20.0733L19.9391 35.4514C21.1848 37.0789 22.013 36.7697 23.0489 35.3654L32.8606 18.6685C33.0584 18.3098 33.2141 17.928 33.3495 17.538C33.9721 16.0207 34.2923 14.3964 34.2921 12.7564C34.2925 5.7448 28.5322 0 21.5004 0ZM21.5004 5.977C25.287 5.977 28.2979 8.98098 28.2979 12.7564C28.2979 16.5318 25.287 19.5345 21.5004 19.5345C17.7143 19.5345 14.7022 16.5322 14.7022 12.7564C14.7022 8.98098 17.7143 5.97743 21.5004 5.97743V5.977Z" fill="black"/>
<path id="Vector_2" d="M29.6326 21.0304L29.6119 21.0846C29.6184 21.0683 29.6235 21.0515 29.63 21.0352L29.6326 21.0304ZM27.4546 31.5422L26.8599 32.2775C27.664 32.3747 28.4423 32.4887 29.1712 32.6267L26.8152 33.3246L29.9598 34.1609L32.3037 33.4217C33.7434 33.9046 35.7369 34.495 36.3973 35.1663H31.6974L32.1644 36.5319H37.0415C37.0269 37.3016 35.6509 37.9269 34.3368 38.4334L31.0038 37.7127L27.8636 38.838L31.2176 39.6034C29.2593 40.1366 25.9716 40.4608 23.2497 40.6101L23.1353 39.0449H19.8647L19.7499 40.6101C17.028 40.4608 13.7406 40.1371 11.782 39.6039L15.1364 38.838L11.9961 37.7127L8.66277 38.4334C7.36761 38.0399 5.97312 37.3016 5.9585 36.5319H10.836L11.303 35.1663H6.60307C7.26355 34.495 9.25702 33.9046 10.6967 33.4217L13.0406 34.1609L16.1852 33.3246L13.8292 32.6267C14.5901 32.486 15.3553 32.3703 16.1237 32.2797L15.5376 31.5431C9.18005 32.204 3.89622 33.6114 2.51076 35.8341C0.300985 39.3764 8.45292 42.9398 21.2291 42.9953C21.4191 43.0047 21.6066 42.9978 21.7838 42.9953C34.5526 42.9368 42.6973 39.3747 40.4892 35.8341C39.1029 33.6105 33.816 32.2027 27.4546 31.5422Z" fill="black"/>
</g>
<defs>
<clipPath id="clip0_1_67">
<rect width="43" height="43" fill="white"/>
</clipPath>
</defs>
</svg>
