<svg width="30" height="30" viewBox="0 0 30 30" fill="none" xmlns="http://www.w3.org/2000/svg">
<path id="Vector" d="M6.05908 15C6.0569 17.1247 6.81387 19.1816 8.19602 20.8067C9.57816 22.4318 11.4963 23.5203 13.6111 23.8796C15.7258 24.2388 17.9006 23.8456 19.7507 22.7695C21.6008 21.6934 23.0067 20.0039 23.7198 18H15.1477V12H30V18H29.9924C28.5882 24.846 22.4761 30 15.1477 30C6.78162 30 0 23.2845 0 15C0 6.7155 6.78162 3.80153e-06 15.1477 3.80153e-06C17.6236 -0.00174242 20.0621 0.598128 22.2494 1.747C24.4367 2.89588 26.3058 4.55866 27.693 6.5895L22.7276 10.032C21.6497 8.41862 20.0755 7.1921 18.2384 6.53425C16.4012 5.8764 14.3989 5.82223 12.5283 6.37978C10.6576 6.93732 9.01813 8.07691 7.85288 9.62961C6.68763 11.1823 6.05862 13.0655 6.05908 15Z" fill="black"/>
</svg>
