<svg width="43" height="43" viewBox="0 0 43 43" fill="none" xmlns="http://www.w3.org/2000/svg">
<g id="icon-park:dumbbell" clip-path="url(#clip0_1_91)">
<g id="Group">
<path id="Vector" d="M12.5416 12.1833C12.5416 10.897 11.3384 9.85417 9.85413 9.85417C8.36986 9.85417 7.16663 10.897 7.16663 12.1833V30.8167C7.16663 32.103 8.36986 33.1458 9.85413 33.1458C11.3384 33.1458 12.5416 32.103 12.5416 30.8167V12.1833Z" stroke="black" stroke-width="4" stroke-linejoin="round"/>
<path id="Vector_2" d="M35.8333 12.1833C35.8333 10.897 34.6301 9.85417 33.1458 9.85417C31.6614 9.85417 30.4583 10.897 30.4583 12.1833V30.8167C30.4583 32.103 31.6614 33.1458 33.1458 33.1458C34.6301 33.1458 35.8333 32.103 35.8333 30.8167V12.1833Z" stroke="black" stroke-width="4" stroke-linejoin="round"/>
<path id="Vector_3" d="M7.16663 16.7223C7.16663 15.4029 5.96339 14.3333 4.47913 14.3333C2.99486 14.3333 1.79163 15.4029 1.79163 16.7223V26.2778C1.79163 27.5971 2.99486 28.6667 4.47913 28.6667C5.96339 28.6667 7.16663 27.5971 7.16663 26.2778V16.7223Z" stroke="black" stroke-width="4" stroke-linejoin="round"/>
<path id="Vector_4" d="M41.2083 16.7223C41.2083 15.4029 40.0051 14.3333 38.5208 14.3333C37.0364 14.3333 35.8333 15.4029 35.8333 16.7223V26.2778C35.8333 27.5971 37.0364 28.6667 38.5208 28.6667C40.0051 28.6667 41.2083 27.5971 41.2083 26.2778V16.7223Z" stroke="black" stroke-width="4" stroke-linejoin="round"/>
<path id="Vector_5" d="M30.4583 24.1875H12.5416V18.8125H30.4583V24.1875Z" stroke="black" stroke-width="4" stroke-linejoin="round"/>
</g>
</g>
<defs>
<clipPath id="clip0_1_91">
<rect width="43" height="43" fill="white"/>
</clipPath>
</defs>
</svg>
