<svg width="40" height="40" viewBox="0 0 40 40" fill="none" xmlns="http://www.w3.org/2000/svg">
<path id="Vector" fill-rule="evenodd" clip-rule="evenodd" d="M8.62081 0.627693C16.1838 -0.209231 23.8163 -0.209231 31.3793 0.627693C35.5111 1.08819 38.8421 4.33553 39.3273 8.47563C40.2242 16.1317 40.2242 23.866 39.3273 31.522C38.8421 35.6621 35.5111 38.9095 31.3815 39.3721C23.8178 40.2093 16.1845 40.2093 8.62081 39.3721C4.48904 38.9095 1.15795 35.6621 0.672755 31.5242C-0.224252 23.8674 -0.224252 16.1324 0.672755 8.47563C1.15795 4.33553 4.48904 1.08819 8.62081 0.627693ZM30.8789 6.96599C30.3018 6.96599 29.7484 7.19484 29.3404 7.6022C28.9323 8.00955 28.7031 8.56205 28.7031 9.13813C28.7031 9.71422 28.9323 10.2667 29.3404 10.6741C29.7484 11.0814 30.3018 11.3103 30.8789 11.3103C31.4559 11.3103 32.0093 11.0814 32.4174 10.6741C32.8254 10.2667 33.0546 9.71422 33.0546 9.13813C33.0546 8.56205 32.8254 8.00955 32.4174 7.6022C32.0093 7.19484 31.4559 6.96599 30.8789 6.96599ZM9.66518 19.9988C9.66518 17.2624 10.754 14.6381 12.6922 12.7031C14.6304 10.7682 17.2591 9.68117 20 9.68117C22.741 9.68117 25.3697 10.7682 27.3079 12.7031C29.2461 14.6381 30.3349 17.2624 30.3349 19.9988C30.3349 22.7352 29.2461 25.3596 27.3079 27.2945C25.3697 29.2294 22.741 30.3165 20 30.3165C17.2591 30.3165 14.6304 29.2294 12.6922 27.2945C10.754 25.3596 9.66518 22.7352 9.66518 19.9988Z" fill="white"/>
</svg>
