<svg width="43" height="43" viewBox="0 0 43 43" fill="none" xmlns="http://www.w3.org/2000/svg">
<g id="material-symbols:ecg-heart">
<path id="Vector" d="M28.8906 5.375C31.8767 5.375 34.3779 6.47986 36.3941 8.68958C38.4103 10.8993 39.4178 13.5271 39.4166 16.5729C39.4166 17.1104 39.3868 17.6407 39.3271 18.1639C39.2673 18.6871 39.1628 19.2019 39.0135 19.7083H27.8156L24.7698 15.1396C24.6205 14.9007 24.4114 14.7066 24.1427 14.5573C23.8739 14.408 23.5903 14.3333 23.2916 14.3333C22.9035 14.3333 22.5523 14.4528 22.2381 14.6917C21.924 14.9306 21.7078 15.2292 21.5896 15.5875L19.1708 22.8438L17.6031 20.5146C17.4538 20.2757 17.2448 20.0816 16.976 19.9323C16.7073 19.783 16.4236 19.7083 16.125 19.7083H3.98644C3.83713 19.2007 3.73262 18.6853 3.6729 18.1621C3.61317 17.639 3.58331 17.1242 3.58331 16.6177C3.58331 13.542 4.58366 10.8993 6.58435 8.68958C8.58505 6.47986 11.0785 5.375 14.0646 5.375C15.4979 5.375 16.8494 5.65868 18.1191 6.22604C19.3888 6.7934 20.5158 7.58472 21.5 8.6C22.4555 7.58472 23.5682 6.7934 24.8379 6.22604C26.1075 5.65868 27.4585 5.375 28.8906 5.375ZM21.5 37.625C20.9625 37.625 20.4471 37.5277 19.9538 37.333C19.4605 37.1383 19.0203 36.8474 18.6333 36.4604L6.62915 24.4115C6.44998 24.2323 6.28574 24.0531 6.13644 23.874C5.98713 23.6948 5.83783 23.5007 5.68852 23.2917H15.1396L18.1854 27.8604C18.3347 28.0993 18.5437 28.2934 18.8125 28.4427C19.0812 28.592 19.3649 28.6667 19.6635 28.6667C20.0517 28.6667 20.41 28.5472 20.7385 28.3083C21.067 28.0694 21.291 27.7708 21.4104 27.4125L23.8291 20.1563L25.3521 22.4854C25.5312 22.7243 25.7552 22.9184 26.0239 23.0677C26.2927 23.217 26.5764 23.2917 26.875 23.2917H37.2666L36.8187 23.8292L36.3708 24.3667L24.3219 36.4604C23.9337 36.8486 23.5007 37.1401 23.0229 37.3348C22.5451 37.5294 22.0375 37.6262 21.5 37.625Z" fill="black"/>
</g>
</svg>
