<svg width="43" height="43" viewBox="0 0 43 43" fill="none" xmlns="http://www.w3.org/2000/svg">
<path fill-rule="evenodd" clip-rule="evenodd" d="M10.7499 19.35C11.8904 19.35 12.9841 18.897 13.7905 18.0906C14.5969 17.2842 15.0499 16.1904 15.0499 15.05C15.0499 13.9096 14.5969 12.8159 13.7905 12.0094C12.9841 11.203 11.8904 10.75 10.7499 10.75C9.6095 10.75 8.51577 11.203 7.70937 12.0094C6.90296 12.8159 6.44993 13.9096 6.44993 15.05C6.44993 16.1904 6.90296 17.2842 7.70937 18.0906C8.51577 18.897 9.6095 19.35 10.7499 19.35ZM10.7499 21.5C11.597 21.5 12.4357 21.3332 13.2182 21.009C14.0008 20.6849 14.7118 20.2098 15.3108 19.6108C15.9097 19.0119 16.3848 18.3009 16.7089 17.5183C17.0331 16.7358 17.1999 15.897 17.1999 15.05C17.1999 14.203 17.0331 13.3642 16.7089 12.5817C16.3848 11.7991 15.9097 11.0881 15.3108 10.4892C14.7118 9.89023 14.0008 9.41513 13.2182 9.09098C12.4357 8.76684 11.597 8.60001 10.7499 8.60001C9.03928 8.60001 7.3987 9.27956 6.18909 10.4892C4.97948 11.6988 4.29993 13.3394 4.29993 15.05C4.29993 16.7607 4.97948 18.4012 6.18909 19.6108C7.3987 20.8205 9.03928 21.5 10.7499 21.5Z" fill="black"/>
<path fill-rule="evenodd" clip-rule="evenodd" d="M8.28608 19.1264C8.38619 19.2263 8.46561 19.3449 8.51981 19.4755C8.574 19.6061 8.6019 19.7461 8.6019 19.8875C8.6019 20.0289 8.574 20.1689 8.51981 20.2995C8.46561 20.4301 8.38619 20.5488 8.28608 20.6486L7.55938 21.3732C6.16088 22.772 5.37516 24.6691 5.37498 26.6471V30.6375C5.37498 30.9226 5.26172 31.196 5.06012 31.3977C4.85851 31.5993 4.58508 31.7125 4.29998 31.7125C4.01487 31.7125 3.74144 31.5993 3.53984 31.3977C3.33823 31.196 3.22498 30.9226 3.22498 30.6375V26.6471C3.22528 24.0989 4.23759 21.6551 6.03933 19.8531L6.76388 19.1264C6.86373 19.0263 6.98236 18.9469 7.11296 18.8927C7.24357 18.8385 7.38358 18.8106 7.52498 18.8106C7.66638 18.8106 7.80639 18.8385 7.93699 18.8927C8.06759 18.9469 8.18622 19.0263 8.28608 19.1264ZM33.6389 18.4814C33.5388 18.5813 33.4593 18.6999 33.4051 18.8305C33.3509 18.9611 33.3231 19.1011 33.3231 19.2425C33.3231 19.3839 33.3509 19.5239 33.4051 19.6545C33.4593 19.7851 33.5388 19.9038 33.6389 20.0036L34.3656 20.7282C35.0581 21.4208 35.6075 22.243 35.9823 23.1479C36.3571 24.0528 36.55 25.0227 36.55 26.0021V30.6375C36.55 30.9226 36.6632 31.196 36.8648 31.3977C37.0664 31.5993 37.3399 31.7125 37.625 31.7125C37.9101 31.7125 38.1835 31.5993 38.3851 31.3977C38.5867 31.196 38.7 30.9226 38.7 30.6375V26.0021C38.6997 23.4539 37.6874 21.0101 35.8856 19.2081L35.1611 18.4814C35.0612 18.3813 34.9426 18.3019 34.812 18.2477C34.6814 18.1935 34.5414 18.1656 34.4 18.1656C34.2586 18.1656 34.1186 18.1935 33.988 18.2477C33.8574 18.3019 33.7387 18.3813 33.6389 18.4814Z" fill="black"/>
<path fill-rule="evenodd" clip-rule="evenodd" d="M30.1 19.35C28.9596 19.35 27.8659 18.897 27.0595 18.0906C26.2531 17.2842 25.8 16.1904 25.8 15.05C25.8 13.9096 26.2531 12.8159 27.0595 12.0094C27.8659 11.203 28.9596 10.75 30.1 10.75C31.2405 10.75 32.3342 11.203 33.1406 12.0094C33.947 12.8159 34.4 13.9096 34.4 15.05C34.4 16.1904 33.947 17.2842 33.1406 18.0906C32.3342 18.897 31.2405 19.35 30.1 19.35ZM30.1 21.5C29.253 21.5 28.4143 21.3332 27.6317 21.009C26.8492 20.6849 26.1381 20.2098 25.5392 19.6108C24.9402 19.0119 24.4651 18.3009 24.141 17.5183C23.8169 16.7358 23.65 15.897 23.65 15.05C23.65 14.203 23.8169 13.3642 24.141 12.5817C24.4651 11.7991 24.9402 11.0881 25.5392 10.4892C26.1381 9.89023 26.8492 9.41513 27.6317 9.09098C28.4143 8.76684 29.253 8.60001 30.1 8.60001C31.8107 8.60001 33.4513 9.27956 34.6609 10.4892C35.8705 11.6988 36.55 13.3394 36.55 15.05C36.55 16.7607 35.8705 18.4012 34.6609 19.6108C33.4513 20.8205 31.8107 21.5 30.1 21.5ZM20.425 28.4875C18.9995 28.4875 17.6323 29.0538 16.6243 30.0618C15.6163 31.0698 15.05 32.437 15.05 33.8625V36.6575C15.05 36.9426 14.9368 37.216 14.7352 37.4176C14.5336 37.6192 14.2601 37.7325 13.975 37.7325C13.6899 37.7325 13.4165 37.6192 13.2149 37.4176C13.0133 37.216 12.9 36.9426 12.9 36.6575V33.8625C12.9 31.8668 13.6928 29.9527 15.104 28.5415C16.5153 27.1303 18.4293 26.3375 20.425 26.3375C22.4208 26.3375 24.3348 27.1303 25.746 28.5415C27.1572 29.9527 27.95 31.8668 27.95 33.8625V36.6575C27.95 36.9426 27.8368 37.216 27.6352 37.4176C27.4336 37.6192 27.1601 37.7325 26.875 37.7325C26.5899 37.7325 26.3165 37.6192 26.1149 37.4176C25.9133 37.216 25.8 36.9426 25.8 36.6575V33.8625C25.8 33.1566 25.661 32.4577 25.3909 31.8056C25.1208 31.1535 24.7248 30.5609 24.2257 30.0618C23.7266 29.5627 23.1341 29.1668 22.4819 28.8967C21.8298 28.6265 21.1309 28.4875 20.425 28.4875Z" fill="black"/>
<path fill-rule="evenodd" clip-rule="evenodd" d="M20.425 25.2625C21.5654 25.2625 22.6591 24.8095 23.4655 24.0031C24.2719 23.1967 24.725 22.1029 24.725 20.9625C24.725 19.8221 24.2719 18.7284 23.4655 17.922C22.6591 17.1155 21.5654 16.6625 20.425 16.6625C19.2845 16.6625 18.1908 17.1155 17.3844 17.922C16.578 18.7284 16.125 19.8221 16.125 20.9625C16.125 22.1029 16.578 23.1967 17.3844 24.0031C18.1908 24.8095 19.2845 25.2625 20.425 25.2625ZM20.425 27.4125C22.1356 27.4125 23.7762 26.733 24.9858 25.5234C26.1954 24.3137 26.875 22.6732 26.875 20.9625C26.875 19.2519 26.1954 17.6113 24.9858 16.4017C23.7762 15.1921 22.1356 14.5125 20.425 14.5125C18.7143 14.5125 17.0737 15.1921 15.8641 16.4017C14.6545 17.6113 13.975 19.2519 13.975 20.9625C13.975 22.6732 14.6545 24.3137 15.8641 25.5234C17.0737 26.733 18.7143 27.4125 20.425 27.4125Z" fill="black"/>
</svg>
